<?xml version="1.0" encoding="utf-8"?>
<!-- Generator: Adobe Illustrator 26.5.3, SVG Export Plug-In . SVG Version: 6.00 Build 0)  -->
<svg version="1.1" id="a" xmlns="http://www.w3.org/2000/svg" xmlns:xlink="http://www.w3.org/1999/xlink" x="0px" y="0px"
	 viewBox="0 0 356.7 244.7" style="enable-background:new 0 0 356.7 244.7;" xml:space="preserve">
<style type="text/css">
	.st0{fill:#D8D8D8;}
</style>
<circle class="st0" cx="172.9" cy="87.2" r="47.4"/>
<g>
	<path class="st0" d="M172.9,241.4l-2.2,0.7c-5.7-7.6-10.8-15.8-15.6-23.9c-8-13.9-15.2-28.2-21.7-42.8
		c-30.8-1.2-61.1-5.6-91.1-13.3l-10.7-2.8l-2.6-6.7c-7.5-19.7-14.3-39.7-20.2-60c-2.3-8-4.6-16.7-6.4-24.8C1.7,63.6,0.7,59.4,0,55.1
		h0c12.5,25,33.3,62.3,45.9,88.1c16,1.9,33.6,4,50.5,6.1l-15.6-24.1l-1.6-2.4v-1.7L79,13.6l15.4,103.6l31.5,35.9
		c7.4,0.9,19.7,2.5,19.7,2.5l1.4,0.2l0.4,1.3c1.9,5.9,4.6,15.1,6.4,21C160,198.4,167,221.2,172.9,241.4L172.9,241.4z"/>
	<path class="st0" d="M356.7,51.7L356.7,51.7c-1.9,8.4-4.6,16.5-8,24.4c-9.3,21.4-22.2,51.3-29.9,68.7l-0.4,1l-1.1,0.2
		c-31.9,5.2-67.1,10.7-99.1,15.5c-0.4,1.5-1.1,4-1.1,4c-6.4,22.1-13.6,46.7-20.1,68.6l-3.2,10.5l-2.2-0.6
		c-0.7-9.5-0.4-19.1,0.1-28.6c1.1-20.4,3.8-40.7,7.6-60.8l1.8-9.4c13.2-3.8,26.5-7.1,40-9.8l26-31.5L279.2,0l2.9,107.6l0,1.7
		l-1.5,2.4l-11.6,19.1c12.5-1.7,25-2.8,37.6-3.4c2.3-4.1,4.7-8.2,7.1-12.3c9.6-16.4,20-32.6,31.1-48
		C348.6,62.1,352.7,56.5,356.7,51.7C356.7,51.7,356.7,51.7,356.7,51.7z"/>
</g>
</svg>
